<svg xmlns="http://www.w3.org/2000/svg" viewBox="0 0 800 426"><defs><style>.cls-1{fill:#fff;}.cls-10,.cls-11,.cls-12,.cls-13,.cls-2,.cls-8,.cls-9{fill:none;}.cls-2{stroke:#00953b;}.cls-10,.cls-11,.cls-12,.cls-13,.cls-2{stroke-linecap:round;}.cls-10,.cls-11,.cls-13,.cls-2{stroke-linejoin:round;}.cls-10,.cls-11,.cls-12,.cls-13,.cls-2,.cls-9{stroke-width:3px;}.cls-3{fill:#353535;}.cls-4{fill:#009639;}.cls-5{fill:#007a33;}.cls-6{fill:#215732;}.cls-7{fill:#76777a;}.cls-12,.cls-13,.cls-8,.cls-9{stroke:#353535;}.cls-12,.cls-8,.cls-9{stroke-miterlimit:10;}.cls-8{stroke-width:6px;}.cls-10,.cls-11{stroke:#fff;}.cls-11{stroke-dasharray:7.17 7.17;}</style></defs><title>dia-LC-2018-03-30-nginx-openid-connect-diagrams-03mw</title><g id="white"><rect class="cls-1" y="0.36" width="800" height="425.27"/></g><g id="Layer_1" data-name="Layer 1"><line class="cls-2" x1="163.03" y1="82.86" x2="192.14" y2="82.86"/><line class="cls-2" x1="163.03" y1="82.86" x2="170.05" y2="88.76"/><line class="cls-2" x1="163.03" y1="82.86" x2="170.05" y2="76.97"/><line class="cls-2" x1="310.12" y1="82.86" x2="344.86" y2="82.86"/><line class="cls-2" x1="506.15" y1="51.61" x2="452.13" y2="51.61"/><line class="cls-2" x1="635.36" y1="51.61" x2="593.34" y2="51.61"/><path class="cls-3" d="M524.77,54.74h-7.71l-1.61,4.64h-3.6l7.52-19.91h3.11L530,59.38H526.4ZM518,52h5.77l-2.88-8.25Z"/><path class="cls-3" d="M540.06,57.93a5.13,5.13,0,0,1-4.15,1.72,4.6,4.6,0,0,1-3.65-1.41A6,6,0,0,1,531,54.17V44.58h3.32v9.55c0,1.87.78,2.81,2.34,2.81A3.28,3.28,0,0,0,540,55.21V44.58h3.33v14.8h-3.13Z"/><path class="cls-3" d="M550.48,41v3.59h2.61V47h-2.61V55.3a1.85,1.85,0,0,0,.33,1.23,1.55,1.55,0,0,0,1.2.37,5.16,5.16,0,0,0,1.16-.13v2.57a8.2,8.2,0,0,1-2.19.31q-3.83,0-3.83-4.22V47h-2.43V44.58h2.43V41Z"/><path class="cls-3" d="M558.34,46.2a5.21,5.21,0,0,1,4.12-1.89q4.72,0,4.79,5.4v9.67h-3.32V49.83a2.91,2.91,0,0,0-.66-2.16,2.68,2.68,0,0,0-1.95-.64,3.2,3.2,0,0,0-3,1.78V59.38H555v-21h3.32Z"/><path class="cls-3" d="M570.14,45.38l-1.7-1.06a6.84,6.84,0,0,0,1.28-3.78V38.38h2.91v1.88a6.26,6.26,0,0,1-.72,2.84A6.89,6.89,0,0,1,570.14,45.38Z"/><path class="cls-3" d="M572.73,51.87a8.78,8.78,0,0,1,1.59-5.49,5.08,5.08,0,0,1,4.25-2.07,4.83,4.83,0,0,1,3.8,1.64V38.38h3.32v21h-3l-.17-1.53a4.9,4.9,0,0,1-4,1.8,5.06,5.06,0,0,1-4.2-2.09A9.14,9.14,0,0,1,572.73,51.87Zm3.33.29a6.15,6.15,0,0,0,.86,3.52,2.83,2.83,0,0,0,2.47,1.26,3.13,3.13,0,0,0,3-1.82V48.81a3.08,3.08,0,0,0-3-1.78,2.84,2.84,0,0,0-2.49,1.28A6.87,6.87,0,0,0,576.06,52.16Z"/><path class="cls-4" d="M400,20.36a7.52,7.52,0,0,0-3.76,1L348.62,48.86a7.53,7.53,0,0,0-3.76,6.51v55a7.5,7.5,0,0,0,1,3.75L400,82.86Z"/><path class="cls-5" d="M345.87,114.11a7.5,7.5,0,0,0,2.75,2.76l47.62,27.49a7.54,7.54,0,0,0,7.52,0l47.62-27.49a7.5,7.5,0,0,0,2.75-2.76L400,82.86Z"/><path class="cls-6" d="M454.13,114.11a7.5,7.5,0,0,0,1-3.75v-55a7.53,7.53,0,0,0-3.76-6.51L403.76,21.37a7.52,7.52,0,0,0-3.76-1v62.5Z"/><path class="cls-1" d="M387.7,99.67a8.72,8.72,0,0,0,6.71,3c3.27,0,5.59-2.16,5.59-4.78V64a4.79,4.79,0,0,0-4.78-4.78h-.14a4.93,4.93,0,0,0-4.92,4.91V88.21a.13.13,0,0,1-.23.09L368.11,62.18a8.75,8.75,0,0,0-6.71-3c-3.28,0-5.59,2.16-5.59,4.78V97.89a4.8,4.8,0,0,0,4.79,4.79h.14a4.93,4.93,0,0,0,4.91-4.92V73.64a.13.13,0,0,1,.23-.08Z"/><path class="cls-1" d="M441.82,76.89H430.56a.13.13,0,0,1-.13-.13V65.5a4.76,4.76,0,0,0-4.74-4.75h0A4.76,4.76,0,0,0,421,65.49V76.28a.62.62,0,0,1-.61.61H409.07a4.76,4.76,0,0,0-4.74,4.74h0a4.76,4.76,0,0,0,4.74,4.74h11.75a.13.13,0,0,1,.13.13V97.76a4.76,4.76,0,0,0,4.74,4.75h0a4.76,4.76,0,0,0,4.74-4.74V87a.62.62,0,0,1,.61-.61h10.78a4.76,4.76,0,0,0,4.75-4.74h0A4.76,4.76,0,0,0,441.82,76.89Z"/><path class="cls-7" d="M337.5,350.5a7.51,7.51,0,0,0,1,3.76L366,401.88a7.53,7.53,0,0,0,6.51,3.76h55a7.53,7.53,0,0,0,3.76-1L400,350.5Z"/><path class="cls-7" d="M431.25,404.63a7.48,7.48,0,0,0,2.75-2.75l27.5-47.62a7.59,7.59,0,0,0,0-7.52L434,299.12a7.48,7.48,0,0,0-2.75-2.75L400,350.5Z"/><path class="cls-7" d="M431.25,296.37a7.53,7.53,0,0,0-3.76-1h-55a7.53,7.53,0,0,0-6.5,3.76l-27.5,47.62a7.61,7.61,0,0,0-1,3.76H400Z"/><rect class="cls-8" x="645.36" y="20.36" width="125" height="125" rx="21.18" ry="21.18"/><line class="cls-9" x1="645.36" y1="53.93" x2="770.36" y2="53.93"/><circle class="cls-3" cx="669.43" cy="37.37" r="4.64"/><circle class="cls-3" cx="683.34" cy="37.37" r="4.64"/><circle class="cls-3" cx="697.26" cy="37.37" r="4.64"/><path class="cls-3" d="M663.22,98.2V81.14h5.84a7.11,7.11,0,0,1,4.41,1.16A4.07,4.07,0,0,1,675,85.76a3.66,3.66,0,0,1-.63,2.1,4.09,4.09,0,0,1-1.85,1.46,3.8,3.8,0,0,1,2.14,1.41,4.13,4.13,0,0,1,.75,2.49,4.53,4.53,0,0,1-1.54,3.69,6.7,6.7,0,0,1-4.41,1.29Zm3-9.88h2.91a3.35,3.35,0,0,0,2.16-.63,2.13,2.13,0,0,0,.78-1.77,2.19,2.19,0,0,0-.72-1.83,3.68,3.68,0,0,0-2.25-.56h-2.88Zm0,2.18v5.33h3.29a3.19,3.19,0,0,0,2.18-.69,2.4,2.4,0,0,0,.79-1.92,2.44,2.44,0,0,0-2.72-2.72Z"/><path class="cls-3" d="M685.66,98.2a4.1,4.1,0,0,1-.33-1.18,4.81,4.81,0,0,1-6.45.32,3.48,3.48,0,0,1-1.2-2.69,3.6,3.6,0,0,1,1.5-3.11,7.33,7.33,0,0,1,4.31-1.09h1.75v-.83a2.24,2.24,0,0,0-.55-1.57,2.18,2.18,0,0,0-1.68-.6,2.51,2.51,0,0,0-1.59.49,1.5,1.5,0,0,0-.63,1.24H678a3.14,3.14,0,0,1,.69-2,4.64,4.64,0,0,1,1.88-1.43,6.66,6.66,0,0,1,2.65-.51,5.28,5.28,0,0,1,3.55,1.12,3.94,3.94,0,0,1,1.36,3.14v5.72a6.49,6.49,0,0,0,.48,2.73v.2Zm-3.13-2a3.3,3.3,0,0,0,1.59-.41,2.76,2.76,0,0,0,1.12-1.1V92.25H683.7a4.19,4.19,0,0,0-2.38.55,1.78,1.78,0,0,0-.79,1.56,1.66,1.66,0,0,0,.54,1.3A2.08,2.08,0,0,0,682.53,96.15Z"/><path class="cls-3" d="M696.28,96.16a2.56,2.56,0,0,0,1.76-.62,2.11,2.11,0,0,0,.75-1.53h2.69a4.17,4.17,0,0,1-.74,2.2,4.86,4.86,0,0,1-1.87,1.63,5.6,5.6,0,0,1-2.56.59,5.41,5.41,0,0,1-4.22-1.72A6.83,6.83,0,0,1,690.53,92v-.29A6.71,6.71,0,0,1,692.08,87a5.36,5.36,0,0,1,4.22-1.74A5.21,5.21,0,0,1,700,86.6a4.75,4.75,0,0,1,1.5,3.47h-2.69a2.59,2.59,0,0,0-.74-1.8,2.42,2.42,0,0,0-1.77-.7,2.53,2.53,0,0,0-2.14,1,5.15,5.15,0,0,0-.76,3v.46a5.26,5.26,0,0,0,.74,3.08A2.54,2.54,0,0,0,696.28,96.16Z"/><path class="cls-3" d="M707.75,92.76l-1.27,1.3V98.2h-2.85v-18h2.85V90.58l.89-1.11,3.51-4h3.42l-4.71,5.29,5.21,7.39h-3.29Z"/><path class="cls-3" d="M721.51,98.43a5.87,5.87,0,0,1-4.39-1.7,6.19,6.19,0,0,1-1.68-4.54v-.35a7.62,7.62,0,0,1,.73-3.4,5.58,5.58,0,0,1,2.05-2.32,5.42,5.42,0,0,1,3-.83,5,5,0,0,1,4,1.65,7,7,0,0,1,1.41,4.67v1.15h-8.28a3.76,3.76,0,0,0,1.05,2.49,3.13,3.13,0,0,0,2.31.91,3.88,3.88,0,0,0,3.19-1.58L726.39,96a5.13,5.13,0,0,1-2,1.77A6.34,6.34,0,0,1,721.51,98.43Zm-.34-10.86a2.39,2.39,0,0,0-1.9.82,4.33,4.33,0,0,0-.92,2.29h5.43v-.21A3.49,3.49,0,0,0,723,88.3,2.41,2.41,0,0,0,721.17,87.57Z"/><path class="cls-3" d="M731.44,85.52l.09,1.47a4.52,4.52,0,0,1,3.69-1.7q4,0,4,4.53V98.2H736.4V90a2.6,2.6,0,0,0-.52-1.79,2.2,2.2,0,0,0-1.71-.58,2.74,2.74,0,0,0-2.56,1.56v9h-2.85V85.52Z"/><path class="cls-3" d="M741.62,91.77A7.59,7.59,0,0,1,743,87.06a4.38,4.38,0,0,1,3.65-1.77,4.17,4.17,0,0,1,3.26,1.4V80.2h2.84v18h-2.57L750,96.89a4.21,4.21,0,0,1-3.41,1.54A4.32,4.32,0,0,1,743,96.64,7.78,7.78,0,0,1,741.62,91.77Zm2.84.24a5.25,5.25,0,0,0,.75,3,2.41,2.41,0,0,0,2.11,1.08,2.7,2.7,0,0,0,2.56-1.55V89.14a2.66,2.66,0,0,0-2.53-1.52,2.43,2.43,0,0,0-2.14,1.09A5.88,5.88,0,0,0,744.46,92Z"/><path class="cls-3" d="M696.89,122.33a4.87,4.87,0,0,1-.33-1.18,4.79,4.79,0,0,1-6.44.32,3.45,3.45,0,0,1-1.21-2.69,3.59,3.59,0,0,1,1.51-3.11,7.3,7.3,0,0,1,4.3-1.09h1.75v-.83a2,2,0,0,0-2.23-2.17,2.51,2.51,0,0,0-1.59.49,1.49,1.49,0,0,0-.62,1.24h-2.85a3.14,3.14,0,0,1,.69-2,4.64,4.64,0,0,1,1.88-1.43,6.68,6.68,0,0,1,2.66-.51,5.32,5.32,0,0,1,3.55,1.12,4,4,0,0,1,1.36,3.14v5.72a6.49,6.49,0,0,0,.48,2.73v.2Zm-3.13-2a3.3,3.3,0,0,0,1.59-.41,2.7,2.7,0,0,0,1.12-1.1v-2.39h-1.54a4.21,4.21,0,0,0-2.38.55,1.78,1.78,0,0,0-.79,1.56,1.66,1.66,0,0,0,.54,1.3A2.1,2.1,0,0,0,693.76,120.28Z"/><path class="cls-3" d="M713.4,116.12a7.55,7.55,0,0,1-1.33,4.69,4.65,4.65,0,0,1-6.93.38v6h-2.85V109.65h2.63l.12,1.29a4.16,4.16,0,0,1,3.41-1.52,4.3,4.3,0,0,1,3.63,1.72,7.78,7.78,0,0,1,1.32,4.8Zm-2.83-.25a5.32,5.32,0,0,0-.76-3,2.45,2.45,0,0,0-2.16-1.11,2.62,2.62,0,0,0-2.51,1.44v5.62a2.64,2.64,0,0,0,2.53,1.48,2.45,2.45,0,0,0,2.13-1.09A5.85,5.85,0,0,0,710.57,115.87Z"/><path class="cls-3" d="M726.91,116.12a7.55,7.55,0,0,1-1.33,4.69,4.65,4.65,0,0,1-6.93.38v6H715.8V109.65h2.63l.12,1.29a4.16,4.16,0,0,1,3.41-1.52,4.33,4.33,0,0,1,3.64,1.72,7.84,7.84,0,0,1,1.31,4.8Zm-2.83-.25a5.24,5.24,0,0,0-.76-3,2.45,2.45,0,0,0-2.16-1.11,2.63,2.63,0,0,0-2.51,1.44v5.62a2.64,2.64,0,0,0,2.53,1.48,2.45,2.45,0,0,0,2.13-1.09A5.85,5.85,0,0,0,724.08,115.87Z"/><line class="cls-2" x1="340.86" y1="51.61" x2="149.5" y2="51.61"/><line class="cls-2" x1="340.86" y1="51.61" x2="333.84" y2="57.51"/><line class="cls-2" x1="340.86" y1="51.61" x2="333.84" y2="45.72"/><line class="cls-2" x1="635.36" y1="51.61" x2="628.33" y2="57.51"/><line class="cls-2" x1="635.36" y1="51.61" x2="628.33" y2="45.72"/><line class="cls-10" x1="450.13" y1="51.61" x2="446.63" y2="51.61"/><line class="cls-11" x1="439.45" y1="51.61" x2="356.96" y2="51.61"/><line class="cls-10" x1="353.37" y1="51.61" x2="349.87" y2="51.61"/><path class="cls-3" d="M215,70.89V84.2a6.47,6.47,0,0,1-2,5,7.69,7.69,0,0,1-5.41,1.85,7.8,7.8,0,0,1-5.43-1.82,6.51,6.51,0,0,1-2-5.07V70.89h3.45V84.21a4.25,4.25,0,0,0,1,3.05,4,4,0,0,0,3,1q4,0,4-4.21V70.89Z"/><path class="cls-3" d="M221.16,76l.1,1.71a5.29,5.29,0,0,1,4.3-2c3.09,0,4.65,1.77,4.71,5.29V90.8H227V81.22a3.09,3.09,0,0,0-.61-2.09,2.57,2.57,0,0,0-2-.68,3.22,3.22,0,0,0-3,1.82V90.8H218V76Z"/><path class="cls-3" d="M241.85,90.8a5.34,5.34,0,0,1-.38-1.38,5.6,5.6,0,0,1-7.52.38,4.06,4.06,0,0,1-1.41-3.14A4.2,4.2,0,0,1,234.3,83a8.48,8.48,0,0,1,5-1.27h2v-1a2.59,2.59,0,0,0-.64-1.84,2.55,2.55,0,0,0-1.95-.69,2.91,2.91,0,0,0-1.86.57,1.75,1.75,0,0,0-.73,1.44h-3.32a3.65,3.65,0,0,1,.81-2.27,5.41,5.41,0,0,1,2.19-1.67,7.72,7.72,0,0,1,3.1-.6A6.21,6.21,0,0,1,243.1,77a4.66,4.66,0,0,1,1.59,3.67v6.67a7.51,7.51,0,0,0,.56,3.19v.23Zm-3.65-2.39a3.79,3.79,0,0,0,1.86-.48,3.17,3.17,0,0,0,1.3-1.29V83.85h-1.79a4.86,4.86,0,0,0-2.77.65,2.08,2.08,0,0,0-.93,1.82,2,2,0,0,0,.63,1.52A2.46,2.46,0,0,0,238.2,88.41Z"/><path class="cls-3" d="M256.51,89.35a5.15,5.15,0,0,1-4.16,1.72,4.58,4.58,0,0,1-3.64-1.41,5.93,5.93,0,0,1-1.24-4.07V76h3.32v9.54q0,2.82,2.34,2.82a3.29,3.29,0,0,0,3.27-1.74V76h3.32V90.8h-3.13Z"/><path class="cls-3" d="M266.92,72.41V76h2.61v2.46h-2.61v8.26a1.78,1.78,0,0,0,.34,1.22,1.54,1.54,0,0,0,1.19.37,5.16,5.16,0,0,0,1.16-.13v2.57a8.08,8.08,0,0,1-2.18.31c-2.56,0-3.83-1.41-3.83-4.22V78.47h-2.44V76h2.44v-3.6Z"/><path class="cls-3" d="M274.79,77.62a5.18,5.18,0,0,1,4.11-1.89q4.73,0,4.8,5.4V90.8h-3.32V81.26a2.89,2.89,0,0,0-.67-2.17,2.72,2.72,0,0,0-1.94-.64,3.2,3.2,0,0,0-3,1.78V90.8h-3.33v-21h3.33Z"/><path class="cls-3" d="M286.58,76.8l-1.69-1A6.88,6.88,0,0,0,286.16,72V69.8h2.91v1.89a6.22,6.22,0,0,1-.72,2.83A6.55,6.55,0,0,1,286.58,76.8Z"/><path class="cls-3" d="M289.18,83.29a8.88,8.88,0,0,1,1.58-5.49A5.1,5.1,0,0,1,295,75.73a4.85,4.85,0,0,1,3.8,1.64V69.8h3.32v21h-3L299,89.27a4.91,4.91,0,0,1-4,1.8A5,5,0,0,1,290.78,89,9.12,9.12,0,0,1,289.18,83.29Zm3.32.29a6.15,6.15,0,0,0,.87,3.52,2.83,2.83,0,0,0,2.47,1.27,3.15,3.15,0,0,0,3-1.82V80.23a3.11,3.11,0,0,0-3-1.78,2.86,2.86,0,0,0-2.49,1.28A6.9,6.9,0,0,0,292.5,83.58Z"/><path class="cls-1" d="M385.58,358.4h-3.45V338.49h3.45Z"/><path class="cls-1" d="M388.37,350.89A8.77,8.77,0,0,1,390,345.4a5.09,5.09,0,0,1,4.25-2.07A4.83,4.83,0,0,1,398,345V337.4h3.33v21h-3l-.16-1.54a4.89,4.89,0,0,1-4,1.81,5.07,5.07,0,0,1-4.21-2.09A9.13,9.13,0,0,1,388.37,350.89Zm3.32.29a6.15,6.15,0,0,0,.87,3.52A2.82,2.82,0,0,0,395,356a3.12,3.12,0,0,0,3-1.82v-6.31a3.08,3.08,0,0,0-2.95-1.78,2.86,2.86,0,0,0-2.49,1.28A6.87,6.87,0,0,0,391.69,351.18Z"/><path class="cls-1" d="M408.11,351v7.39h-3.46V338.49h7.61a7.69,7.69,0,0,1,5.3,1.74,5.84,5.84,0,0,1,2,4.6,5.63,5.63,0,0,1-1.92,4.55,8,8,0,0,1-5.38,1.63Zm0-2.79h4.15a4.1,4.1,0,0,0,2.82-.86,3.19,3.19,0,0,0,1-2.51,3.43,3.43,0,0,0-1-2.58,3.78,3.78,0,0,0-2.7-1h-4.25Z"/><line class="cls-2" x1="400" y1="150.36" x2="400" y2="181.73"/><line class="cls-2" x1="400" y1="258.93" x2="400" y2="290.3"/><line class="cls-2" x1="400" y1="150.36" x2="405.9" y2="157.39"/><line class="cls-2" x1="400" y1="150.36" x2="394.1" y2="157.39"/><line class="cls-2" x1="400" y1="290.36" x2="405.9" y2="283.34"/><line class="cls-2" x1="400" y1="290.36" x2="394.1" y2="283.34"/><line class="cls-2" x1="92.14" y1="154.36" x2="92.14" y2="181.73"/><line class="cls-2" x1="92.14" y1="258.93" x2="92.14" y2="300.5"/><line class="cls-2" x1="92.14" y1="154.36" x2="86.25" y2="161.39"/><line class="cls-2" x1="92.14" y1="154.36" x2="98.04" y2="161.39"/><path class="cls-2" d="M92.14,300.5a50,50,0,0,0,50,50"/><line class="cls-2" x1="332.35" y1="350.5" x2="142.14" y2="350.5"/><line class="cls-2" x1="332.35" y1="350.5" x2="325.32" y2="344.61"/><line class="cls-2" x1="332.35" y1="350.5" x2="325.32" y2="356.4"/><path class="cls-3" d="M291.51,204.86h-3l-7.6-12.1v12.1h-3V187.8h3L288.57,200V187.8h2.94Z"/><path class="cls-3" d="M308.09,202.65a5.74,5.74,0,0,1-2.57,1.83,10.51,10.51,0,0,1-3.72.62,7.34,7.34,0,0,1-3.8-1,6.43,6.43,0,0,1-2.55-2.78,9.64,9.64,0,0,1-.93-4.22v-1.34a9,9,0,0,1,1.85-6,6.42,6.42,0,0,1,5.17-2.17,6.79,6.79,0,0,1,4.52,1.41,6.08,6.08,0,0,1,2,4.06h-2.91A3.26,3.26,0,0,0,301.6,190a3.49,3.49,0,0,0-3,1.43,7.3,7.3,0,0,0-1.07,4.21v1.31a6.93,6.93,0,0,0,1.16,4.29,3.85,3.85,0,0,0,3.24,1.53,4.27,4.27,0,0,0,3.24-1v-3.34h-3.52v-2.25h6.47Z"/><path class="cls-3" d="M314.48,204.86h-3V187.8h3Z"/><path class="cls-3" d="M331.66,204.86h-3l-7.6-12.1v12.1h-3V187.8h3L328.71,200V187.8h3Z"/><path class="cls-3" d="M341.23,194l3.59-6.16h3.42l-5.16,8.46,5.27,8.6H344.9l-3.67-6.25-3.68,6.25H334.1l5.29-8.6-5.17-8.46h3.42Z"/><path class="cls-3" d="M359.49,198.53v6.33h-3V187.8h6.53a6.61,6.61,0,0,1,4.54,1.49,5,5,0,0,1,1.68,3.94,4.86,4.86,0,0,1-1.64,3.91,6.93,6.93,0,0,1-4.61,1.39Zm0-2.39h3.56a3.48,3.48,0,0,0,2.41-.74,2.72,2.72,0,0,0,.84-2.15,2.93,2.93,0,0,0-.85-2.21,3.26,3.26,0,0,0-2.32-.85h-3.64Z"/><path class="cls-3" d="M374.62,204.86h-2.85v-18h2.85Z"/><path class="cls-3" d="M385.4,203.62a4.41,4.41,0,0,1-3.56,1.48,3.93,3.93,0,0,1-3.13-1.21,5.16,5.16,0,0,1-1.06-3.49v-8.22h2.85v8.18c0,1.61.67,2.42,2,2.42a2.81,2.81,0,0,0,2.8-1.49v-9.11h2.85v12.68h-2.68Z"/><path class="cls-3" d="M398.16,201.42a1.28,1.28,0,0,0-.63-1.16,6.71,6.71,0,0,0-2.08-.71,10.62,10.62,0,0,1-2.42-.77,3.23,3.23,0,0,1-2.14-3,3.36,3.36,0,0,1,1.39-2.74,5.47,5.47,0,0,1,3.51-1.1,5.71,5.71,0,0,1,3.68,1.12,3.59,3.59,0,0,1,1.4,2.92H398a1.74,1.74,0,0,0-.61-1.36,2.32,2.32,0,0,0-1.62-.55,2.54,2.54,0,0,0-1.53.44,1.36,1.36,0,0,0-.59,1.16,1.17,1.17,0,0,0,.55,1,7.82,7.82,0,0,0,2.23.73,10.29,10.29,0,0,1,2.63.88,3.68,3.68,0,0,1,1.42,1.22,3.14,3.14,0,0,1,.46,1.74,3.3,3.3,0,0,1-1.42,2.77,6.07,6.07,0,0,1-3.71,1.06,6.48,6.48,0,0,1-2.78-.57,4.57,4.57,0,0,1-1.9-1.54,3.71,3.71,0,0,1-.68-2.12h2.77a2,2,0,0,0,.76,1.55,3,3,0,0,0,1.86.54,2.92,2.92,0,0,0,1.71-.42A1.34,1.34,0,0,0,398.16,201.42Z"/><path class="cls-3" d="M415,205.1a5.89,5.89,0,0,1-4.39-1.71,6.18,6.18,0,0,1-1.68-4.54v-.35a7.54,7.54,0,0,1,.73-3.39,5.63,5.63,0,0,1,2.06-2.33,5.47,5.47,0,0,1,2.95-.83,5,5,0,0,1,4,1.65,6.94,6.94,0,0,1,1.42,4.68v1.15H411.8a3.85,3.85,0,0,0,1.05,2.48,3.13,3.13,0,0,0,2.31.91,3.84,3.84,0,0,0,3.19-1.58l1.54,1.47a5.21,5.21,0,0,1-2,1.76A6.32,6.32,0,0,1,415,205.1Zm-.34-10.87a2.42,2.42,0,0,0-1.89.82,4.25,4.25,0,0,0-.92,2.29h5.42v-.21a3.4,3.4,0,0,0-.76-2.16A2.37,2.37,0,0,0,414.66,194.23Z"/><path class="cls-3" d="M426.85,196.36l2.41-4.18h3.17l-3.88,6.25,4,6.43h-3.14l-2.53-4.33-2.52,4.33H421.2l4-6.43-3.87-6.25h3.14Z"/><path class="cls-3" d="M439.34,202.82a2.55,2.55,0,0,0,1.77-.62,2.09,2.09,0,0,0,.75-1.53h2.68a4.12,4.12,0,0,1-.74,2.21,4.85,4.85,0,0,1-1.87,1.62,5.57,5.57,0,0,1-2.55.6,5.4,5.4,0,0,1-4.22-1.73,6.8,6.8,0,0,1-1.56-4.75v-.3a6.71,6.71,0,0,1,1.54-4.63,5.37,5.37,0,0,1,4.22-1.74,5.21,5.21,0,0,1,3.69,1.32,4.69,4.69,0,0,1,1.49,3.46h-2.68a2.61,2.61,0,0,0-.74-1.79,2.41,2.41,0,0,0-1.78-.71,2.5,2.5,0,0,0-2.13,1,5,5,0,0,0-.76,3v.45a5.18,5.18,0,0,0,.74,3.08A2.49,2.49,0,0,0,439.34,202.82Z"/><path class="cls-3" d="M449.5,193.57A4.46,4.46,0,0,1,453,192q4.05,0,4.11,4.63v8.28h-2.85v-8.18a2.48,2.48,0,0,0-.57-1.85,2.27,2.27,0,0,0-1.67-.55,2.74,2.74,0,0,0-2.55,1.52v9.06h-2.85v-18h2.85Z"/><path class="cls-3" d="M467.59,204.86a4.4,4.4,0,0,1-.32-1.18,4.79,4.79,0,0,1-6.45.33,3.52,3.52,0,0,1-1.21-2.7,3.61,3.61,0,0,1,1.51-3.11,7.32,7.32,0,0,1,4.31-1.08h1.74v-.84a2.2,2.2,0,0,0-.55-1.57,2.15,2.15,0,0,0-1.67-.59,2.56,2.56,0,0,0-1.6.48,1.53,1.53,0,0,0-.62,1.24h-2.85a3.14,3.14,0,0,1,.69-2,4.68,4.68,0,0,1,1.89-1.43,6.63,6.63,0,0,1,2.65-.51,5.3,5.3,0,0,1,3.55,1.12,4,4,0,0,1,1.36,3.14v5.72a6.49,6.49,0,0,0,.48,2.73v.2Zm-3.13-2.05a3.14,3.14,0,0,0,1.59-.41,2.7,2.7,0,0,0,1.12-1.1v-2.39h-1.53a4.16,4.16,0,0,0-2.38.55,1.8,1.8,0,0,0-.8,1.56,1.66,1.66,0,0,0,.55,1.31A2.11,2.11,0,0,0,464.46,202.81Z"/><path class="cls-3" d="M475.64,192.18l.09,1.47a4.55,4.55,0,0,1,3.69-1.7q4,0,4,4.53v8.38H480.6v-8.21a2.6,2.6,0,0,0-.52-1.79,2.19,2.19,0,0,0-1.7-.58,2.74,2.74,0,0,0-2.57,1.56v9H473V192.18Z"/><path class="cls-3" d="M485.85,198.43a7.41,7.41,0,0,1,1.39-4.72,4.47,4.47,0,0,1,3.69-1.76,4.18,4.18,0,0,1,3.41,1.51l.12-1.28H497v12.3a5.11,5.11,0,0,1-1.55,3.93,5.93,5.93,0,0,1-4.19,1.45,6.9,6.9,0,0,1-2.73-.58,5,5,0,0,1-2-1.52l1.35-1.71a4.07,4.07,0,0,0,3.23,1.56,3.14,3.14,0,0,0,2.24-.77,2.94,2.94,0,0,0,.82-2.26v-.85a4.2,4.2,0,0,1-3.28,1.37,4.47,4.47,0,0,1-3.64-1.77A7.66,7.66,0,0,1,485.85,198.43Zm2.84.25a5.09,5.09,0,0,0,.78,3,2.51,2.51,0,0,0,2.16,1.1,2.74,2.74,0,0,0,2.55-1.48v-5.58a2.7,2.7,0,0,0-2.53-1.44,2.51,2.51,0,0,0-2.18,1.11A5.75,5.75,0,0,0,488.69,198.68Z"/><path class="cls-3" d="M505.54,205.1a5.88,5.88,0,0,1-4.39-1.71,6.18,6.18,0,0,1-1.68-4.54v-.35a7.54,7.54,0,0,1,.73-3.39,5.63,5.63,0,0,1,2.06-2.33,5.45,5.45,0,0,1,2.95-.83,5,5,0,0,1,4,1.65,7,7,0,0,1,1.41,4.68v1.15h-8.28a3.85,3.85,0,0,0,1.05,2.48,3.13,3.13,0,0,0,2.31.91,3.84,3.84,0,0,0,3.19-1.58l1.54,1.47a5.21,5.21,0,0,1-2,1.76A6.35,6.35,0,0,1,505.54,205.1Zm-.34-10.87a2.42,2.42,0,0,0-1.89.82,4.25,4.25,0,0,0-.92,2.29h5.42v-.21a3.4,3.4,0,0,0-.76-2.16A2.37,2.37,0,0,0,505.2,194.23Z"/><path class="cls-3" d="M519.94,201.42a1.28,1.28,0,0,0-.63-1.16,6.62,6.62,0,0,0-2.08-.71,10.79,10.79,0,0,1-2.42-.77,3.24,3.24,0,0,1-2.13-3,3.37,3.37,0,0,1,1.38-2.74,5.47,5.47,0,0,1,3.51-1.1,5.71,5.71,0,0,1,3.68,1.12,3.59,3.59,0,0,1,1.4,2.92H519.8a1.74,1.74,0,0,0-.61-1.36,2.29,2.29,0,0,0-1.62-.55,2.54,2.54,0,0,0-1.53.44,1.36,1.36,0,0,0-.59,1.16,1.19,1.19,0,0,0,.55,1,7.82,7.82,0,0,0,2.23.73,10.29,10.29,0,0,1,2.63.88,3.68,3.68,0,0,1,1.42,1.22,3.14,3.14,0,0,1,.46,1.74,3.3,3.3,0,0,1-1.42,2.77,6.07,6.07,0,0,1-3.71,1.06,6.48,6.48,0,0,1-2.78-.57,4.63,4.63,0,0,1-1.9-1.54,3.71,3.71,0,0,1-.68-2.12H515a2,2,0,0,0,.76,1.55,3.59,3.59,0,0,0,3.58.12A1.33,1.33,0,0,0,519.94,201.42Z"/><path class="cls-3" d="M308.7,229a4.4,4.4,0,0,1-.32-1.18,4.79,4.79,0,0,1-6.45.33,3.52,3.52,0,0,1-1.21-2.7,3.61,3.61,0,0,1,1.51-3.11,7.32,7.32,0,0,1,4.31-1.08h1.74v-.84a2.2,2.2,0,0,0-.55-1.57,2.15,2.15,0,0,0-1.67-.59,2.56,2.56,0,0,0-1.6.48,1.53,1.53,0,0,0-.62,1.24H301a3.09,3.09,0,0,1,.7-1.95,4.58,4.58,0,0,1,1.88-1.43,6.63,6.63,0,0,1,2.65-.51,5.3,5.3,0,0,1,3.55,1.12,4,4,0,0,1,1.36,3.14v5.72a6.49,6.49,0,0,0,.48,2.73v.2Zm-3.12-2.05a3.13,3.13,0,0,0,1.58-.41,2.7,2.7,0,0,0,1.12-1.1V223h-1.53a4.16,4.16,0,0,0-2.38.55,1.8,1.8,0,0,0-.8,1.56,1.66,1.66,0,0,0,.55,1.31A2.12,2.12,0,0,0,305.58,226.94Z"/><path class="cls-3" d="M321.79,227.75a4.39,4.39,0,0,1-3.56,1.48,4,4,0,0,1-3.12-1.21,5.11,5.11,0,0,1-1.06-3.49v-8.22h2.85v8.18c0,1.61.66,2.42,2,2.42a2.82,2.82,0,0,0,2.8-1.49v-9.11h2.85V229h-2.69Z"/><path class="cls-3" d="M331,213.23v3.08h2.24v2.11H331v7.08a1.57,1.57,0,0,0,.28,1.05,1.38,1.38,0,0,0,1,.32,4.34,4.34,0,0,0,1-.12V229a7.06,7.06,0,0,1-1.88.27q-3.29,0-3.28-3.62v-7.19h-2.09v-2.11h2.09v-3.08Z"/><path class="cls-3" d="M338.24,217.7a4.44,4.44,0,0,1,3.52-1.62q4.07,0,4.12,4.63V229H343v-8.18a2.48,2.48,0,0,0-.57-1.85,2.3,2.3,0,0,0-1.67-.55,2.74,2.74,0,0,0-2.55,1.52V229h-2.85V211h2.85Z"/><path class="cls-3" d="M348.22,222.54a7.48,7.48,0,0,1,.74-3.36,5.39,5.39,0,0,1,2.07-2.3,5.9,5.9,0,0,1,3.07-.8,5.56,5.56,0,0,1,4.17,1.65,6.49,6.49,0,0,1,1.73,4.38v.67a7.53,7.53,0,0,1-.72,3.35,5.33,5.33,0,0,1-2.06,2.29,5.9,5.9,0,0,1-3.1.81,5.52,5.52,0,0,1-4.3-1.79,6.86,6.86,0,0,1-1.61-4.76Zm2.85.24a5.11,5.11,0,0,0,.81,3.07,2.65,2.65,0,0,0,2.25,1.1,2.58,2.58,0,0,0,2.24-1.12,5.61,5.61,0,0,0,.8-3.29,5,5,0,0,0-.82-3,2.65,2.65,0,0,0-2.25-1.13,2.61,2.61,0,0,0-2.21,1.11A5.51,5.51,0,0,0,351.07,222.78Z"/><path class="cls-3" d="M369.06,218.91a7.46,7.46,0,0,0-1.16-.09,2.61,2.61,0,0,0-2.64,1.5V229h-2.85V216.31h2.72l.07,1.42a3.21,3.21,0,0,1,2.86-1.65,2.67,2.67,0,0,1,1,.16Z"/><path class="cls-3" d="M370.86,213a1.5,1.5,0,0,1,.42-1.09,1.55,1.55,0,0,1,1.19-.43,1.58,1.58,0,0,1,1.19.43,1.5,1.5,0,0,1,.42,1.09,1.45,1.45,0,0,1-.42,1.07,1.58,1.58,0,0,1-1.19.43,1.55,1.55,0,0,1-1.19-.43A1.45,1.45,0,0,1,370.86,213Zm3,16H371V216.31h2.84Z"/><path class="cls-3" d="M380,226.72h6.75V229H376.49v-1.86l6.43-8.52H376.6v-2.3h9.93v1.81Z"/><path class="cls-3" d="M396.63,229a4.73,4.73,0,0,1-.33-1.18,4.44,4.44,0,0,1-3.33,1.42,4.48,4.48,0,0,1-3.11-1.09,3.49,3.49,0,0,1-1.21-2.7,3.59,3.59,0,0,1,1.51-3.11,7.3,7.3,0,0,1,4.3-1.08h1.75v-.84a2.24,2.24,0,0,0-.55-1.57,2.18,2.18,0,0,0-1.68-.59,2.51,2.51,0,0,0-1.59.48,1.5,1.5,0,0,0-.62,1.24h-2.85a3.14,3.14,0,0,1,.69-1.95,4.64,4.64,0,0,1,1.88-1.43,6.68,6.68,0,0,1,2.66-.51,5.32,5.32,0,0,1,3.55,1.12,4,4,0,0,1,1.36,3.14v5.72a6.49,6.49,0,0,0,.48,2.73v.2Zm-3.13-2.05a3.19,3.19,0,0,0,1.59-.41,2.7,2.7,0,0,0,1.12-1.1V223h-1.54a4.21,4.21,0,0,0-2.38.55,1.79,1.79,0,0,0-.79,1.56,1.68,1.68,0,0,0,.54,1.31A2.14,2.14,0,0,0,393.5,226.94Z"/><path class="cls-3" d="M405.61,213.23v3.08h2.24v2.11h-2.24v7.08a1.57,1.57,0,0,0,.28,1.05,1.38,1.38,0,0,0,1,.32,4.34,4.34,0,0,0,1-.12V229a7.06,7.06,0,0,1-1.88.27q-3.29,0-3.28-3.62v-7.19h-2.09v-2.11h2.09v-3.08Z"/><path class="cls-3" d="M410,213a1.49,1.49,0,0,1,.41-1.09,1.58,1.58,0,0,1,1.19-.43,1.6,1.6,0,0,1,1.2.43,1.5,1.5,0,0,1,.42,1.09,1.45,1.45,0,0,1-.42,1.07,1.6,1.6,0,0,1-1.2.43,1.58,1.58,0,0,1-1.19-.43A1.45,1.45,0,0,1,410,213Zm3,16H410.2V216.31h2.85Z"/><path class="cls-3" d="M415.62,222.54a7.47,7.47,0,0,1,.73-3.36,5.47,5.47,0,0,1,2.08-2.3,5.88,5.88,0,0,1,3.07-.8,5.52,5.52,0,0,1,4.16,1.65,6.45,6.45,0,0,1,1.73,4.38v.67a7.53,7.53,0,0,1-.72,3.35,5.27,5.27,0,0,1-2.06,2.29,5.87,5.87,0,0,1-3.1.81,5.49,5.49,0,0,1-4.29-1.79,6.81,6.81,0,0,1-1.61-4.76Zm2.84.24a5.11,5.11,0,0,0,.81,3.07,2.65,2.65,0,0,0,2.25,1.1,2.61,2.61,0,0,0,2.25-1.12,5.68,5.68,0,0,0,.8-3.29,5,5,0,0,0-.83-3,2.78,2.78,0,0,0-4.46,0A5.59,5.59,0,0,0,418.46,222.78Z"/><path class="cls-3" d="M432.46,216.31l.08,1.47a4.56,4.56,0,0,1,3.69-1.7q4,0,4,4.53V229h-2.85v-8.21a2.6,2.6,0,0,0-.52-1.79,2.19,2.19,0,0,0-1.7-.58,2.74,2.74,0,0,0-2.57,1.56v9h-2.85V216.31Z"/><path class="cls-3" d="M454.35,227a2.55,2.55,0,0,0,1.77-.62,2.17,2.17,0,0,0,.75-1.53h2.68a4.2,4.2,0,0,1-.74,2.21,4.92,4.92,0,0,1-1.87,1.62,5.61,5.61,0,0,1-2.56.6,5.41,5.41,0,0,1-4.22-1.73,6.8,6.8,0,0,1-1.56-4.75v-.3a6.71,6.71,0,0,1,1.55-4.63,5.36,5.36,0,0,1,4.22-1.74,5.17,5.17,0,0,1,3.68,1.32,4.73,4.73,0,0,1,1.5,3.46h-2.68a2.62,2.62,0,0,0-.75-1.79,2.39,2.39,0,0,0-1.77-.71,2.51,2.51,0,0,0-2.14,1,5.11,5.11,0,0,0-.76,3v.45a5.18,5.18,0,0,0,.75,3.08A2.48,2.48,0,0,0,454.35,227Z"/><path class="cls-3" d="M461.17,222.54a7.47,7.47,0,0,1,.73-3.36,5.47,5.47,0,0,1,2.08-2.3,5.88,5.88,0,0,1,3.07-.8,5.52,5.52,0,0,1,4.16,1.65,6.45,6.45,0,0,1,1.73,4.38l0,.67a7.53,7.53,0,0,1-.73,3.35,5.27,5.27,0,0,1-2.06,2.29,5.87,5.87,0,0,1-3.1.81,5.49,5.49,0,0,1-4.29-1.79,6.81,6.81,0,0,1-1.61-4.76Zm2.84.24a5.11,5.11,0,0,0,.81,3.07,2.65,2.65,0,0,0,2.25,1.1,2.61,2.61,0,0,0,2.25-1.12,5.68,5.68,0,0,0,.8-3.29,5,5,0,0,0-.83-3,2.78,2.78,0,0,0-4.46,0A5.59,5.59,0,0,0,464,222.78Z"/><path class="cls-3" d="M474.83,222.56a7.55,7.55,0,0,1,1.36-4.71,4.36,4.36,0,0,1,3.64-1.77,4.13,4.13,0,0,1,3.26,1.41V211h2.85v18h-2.58l-.14-1.31a4.2,4.2,0,0,1-3.41,1.55,4.31,4.31,0,0,1-3.6-1.8A7.79,7.79,0,0,1,474.83,222.56Zm2.85.25a5.31,5.31,0,0,0,.74,3,2.41,2.41,0,0,0,2.12,1.09,2.69,2.69,0,0,0,2.55-1.56v-5.42a2.65,2.65,0,0,0-2.53-1.52,2.43,2.43,0,0,0-2.13,1.1A5.88,5.88,0,0,0,477.68,222.81Z"/><path class="cls-3" d="M494.49,229.23a5.87,5.87,0,0,1-4.38-1.71,6.14,6.14,0,0,1-1.69-4.54v-.35a7.54,7.54,0,0,1,.74-3.39,5.44,5.44,0,0,1,5-3.16,5,5,0,0,1,4,1.65,7,7,0,0,1,1.41,4.68v1.15h-8.29a3.85,3.85,0,0,0,1,2.48,3.17,3.17,0,0,0,2.32.91,3.85,3.85,0,0,0,3.19-1.58l1.53,1.47a5.19,5.19,0,0,1-2,1.76A6.36,6.36,0,0,1,494.49,229.23Zm-.34-10.87a2.42,2.42,0,0,0-1.89.82,4.25,4.25,0,0,0-.92,2.29h5.43v-.21a3.46,3.46,0,0,0-.76-2.16A2.4,2.4,0,0,0,494.15,218.36Z"/><path class="cls-3" d="M338.15,253.12V242.55h-1.94v-2.11h1.94v-1.16a4.34,4.34,0,0,1,1.17-3.25,4.46,4.46,0,0,1,3.28-1.15,6.56,6.56,0,0,1,1.59.21l-.07,2.22a5.77,5.77,0,0,0-1.09-.09,1.83,1.83,0,0,0-2,2.1v1.12h2.57v2.11H341v10.57Z"/><path class="cls-3" d="M345.12,246.67a7.48,7.48,0,0,1,.74-3.36,5.39,5.39,0,0,1,2.07-2.3,5.9,5.9,0,0,1,3.07-.8,5.56,5.56,0,0,1,4.17,1.65,6.49,6.49,0,0,1,1.73,4.38v.67a7.53,7.53,0,0,1-.72,3.35,5.33,5.33,0,0,1-2.06,2.29,5.9,5.9,0,0,1-3.1.81,5.52,5.52,0,0,1-4.3-1.79,6.86,6.86,0,0,1-1.61-4.76Zm2.85.24a5.11,5.11,0,0,0,.81,3.07,2.65,2.65,0,0,0,2.25,1.1,2.58,2.58,0,0,0,2.24-1.12,5.61,5.61,0,0,0,.8-3.29,5,5,0,0,0-.82-3,2.65,2.65,0,0,0-2.25-1.13,2.61,2.61,0,0,0-2.21,1.11A5.51,5.51,0,0,0,348,246.91Z"/><path class="cls-3" d="M366,243a7.46,7.46,0,0,0-1.16-.09,2.61,2.61,0,0,0-2.64,1.5v8.67h-2.85V240.44H362l.07,1.42a3.21,3.21,0,0,1,2.86-1.65,2.67,2.67,0,0,1,1,.16Z"/><path class="cls-3" d="M377.14,253.12h-3V236.06h3Z"/><path class="cls-3" d="M380.78,253.12V236.06h5a7.88,7.88,0,0,1,4,1,6.83,6.83,0,0,1,2.72,2.86,9.07,9.07,0,0,1,1,4.24V245a9,9,0,0,1-1,4.26,6.79,6.79,0,0,1-2.75,2.84,8.32,8.32,0,0,1-4.1,1Zm3-14.67v12.31h1.93a4.46,4.46,0,0,0,3.58-1.46,6.35,6.35,0,0,0,1.27-4.19v-1a6.48,6.48,0,0,0-1.21-4.24,4.26,4.26,0,0,0-3.5-1.47Z"/><path class="cls-3" d="M414.06,238.45h-5.32v14.67H405.8V238.45h-5.27v-2.39h13.53Z"/><path class="cls-3" d="M413.05,246.67a7.48,7.48,0,0,1,.74-3.36,5.47,5.47,0,0,1,2.08-2.3,5.88,5.88,0,0,1,3.07-.8,5.52,5.52,0,0,1,4.16,1.65,6.45,6.45,0,0,1,1.73,4.38v.67a7.53,7.53,0,0,1-.72,3.35,5.27,5.27,0,0,1-2.06,2.29,5.87,5.87,0,0,1-3.1.81,5.49,5.49,0,0,1-4.29-1.79,6.82,6.82,0,0,1-1.62-4.76Zm2.85.24a5.11,5.11,0,0,0,.81,3.07,2.65,2.65,0,0,0,2.25,1.1,2.61,2.61,0,0,0,2.25-1.12,5.68,5.68,0,0,0,.8-3.29,5,5,0,0,0-.83-3,2.78,2.78,0,0,0-4.46,0A5.59,5.59,0,0,0,415.9,246.91Z"/><path class="cls-3" d="M431.37,247.69l-1.26,1.3v4.13h-2.85v-18h2.85v10.39l.89-1.12,3.5-3.95h3.42l-4.71,5.29,5.22,7.39h-3.3Z"/><path class="cls-3" d="M445.13,253.36a5.88,5.88,0,0,1-4.39-1.71,6.18,6.18,0,0,1-1.68-4.54v-.35a7.54,7.54,0,0,1,.73-3.39,5.56,5.56,0,0,1,2.06-2.33,5.45,5.45,0,0,1,2.95-.83,5,5,0,0,1,4,1.65,7,7,0,0,1,1.41,4.68v1.15h-8.28a3.85,3.85,0,0,0,1.05,2.48,3.13,3.13,0,0,0,2.31.91,3.84,3.84,0,0,0,3.19-1.58L450,251a5.21,5.21,0,0,1-2,1.76A6.35,6.35,0,0,1,445.13,253.36Zm-.34-10.87a2.42,2.42,0,0,0-1.89.82,4.25,4.25,0,0,0-.92,2.29h5.42v-.21a3.4,3.4,0,0,0-.76-2.16A2.37,2.37,0,0,0,444.79,242.49Z"/><path class="cls-3" d="M455.07,240.44l.08,1.47a4.57,4.57,0,0,1,3.69-1.7q4,0,4,4.53v8.38H460v-8.21a2.6,2.6,0,0,0-.52-1.79,2.17,2.17,0,0,0-1.7-.58,2.74,2.74,0,0,0-2.57,1.56v9h-2.85V240.44Z"/><path class="cls-3" d="M82.22,187.8v11.4a5.54,5.54,0,0,1-1.74,4.31,7.62,7.62,0,0,1-9.29,0,5.59,5.59,0,0,1-1.72-4.34V187.8h3v11.41a3.62,3.62,0,0,0,.87,2.62,3.4,3.4,0,0,0,2.56.9q3.42,0,3.42-3.61V187.8Z"/><path class="cls-3" d="M91.86,201.42a1.28,1.28,0,0,0-.63-1.16,6.71,6.71,0,0,0-2.08-.71,10.72,10.72,0,0,1-2.43-.77,3.24,3.24,0,0,1-2.13-3A3.37,3.37,0,0,1,86,193.05a5.52,5.52,0,0,1,3.52-1.1,5.66,5.66,0,0,1,3.67,1.12,3.56,3.56,0,0,1,1.4,2.92H91.72a1.77,1.77,0,0,0-.61-1.36,2.32,2.32,0,0,0-1.62-.55,2.5,2.5,0,0,0-1.53.44,1.36,1.36,0,0,0-.59,1.16,1.17,1.17,0,0,0,.55,1,7.82,7.82,0,0,0,2.23.73,10.42,10.42,0,0,1,2.63.88,3.65,3.65,0,0,1,1.41,1.22,3.14,3.14,0,0,1,.47,1.74A3.3,3.3,0,0,1,93.24,204a6.1,6.1,0,0,1-3.72,1.06,6.47,6.47,0,0,1-2.77-.57,4.57,4.57,0,0,1-1.9-1.54,3.71,3.71,0,0,1-.68-2.12h2.77a2,2,0,0,0,.76,1.55,3,3,0,0,0,1.86.54,2.92,2.92,0,0,0,1.71-.42A1.34,1.34,0,0,0,91.86,201.42Z"/><path class="cls-3" d="M102.36,205.1A5.89,5.89,0,0,1,98,203.39a6.18,6.18,0,0,1-1.68-4.54v-.35a7.54,7.54,0,0,1,.73-3.39,5.63,5.63,0,0,1,2.06-2.33,5.47,5.47,0,0,1,3-.83,5,5,0,0,1,4,1.65,6.94,6.94,0,0,1,1.42,4.68v1.15H99.16a3.85,3.85,0,0,0,1,2.48,3.14,3.14,0,0,0,2.31.91,3.84,3.84,0,0,0,3.19-1.58l1.54,1.47a5.21,5.21,0,0,1-2,1.76A6.29,6.29,0,0,1,102.36,205.1ZM102,194.23a2.42,2.42,0,0,0-1.89.82,4.25,4.25,0,0,0-.92,2.29h5.42v-.21a3.4,3.4,0,0,0-.76-2.16A2.37,2.37,0,0,0,102,194.23Z"/><path class="cls-3" d="M115.93,194.78a7.27,7.27,0,0,0-1.16-.09,2.6,2.6,0,0,0-2.63,1.5v8.67h-2.85V192.18H112l.07,1.42a3.21,3.21,0,0,1,2.86-1.65,2.71,2.71,0,0,1,1,.16Z"/><path class="cls-3" d="M30,229a4,4,0,0,1-.33-1.18,4.78,4.78,0,0,1-6.44.33,3.49,3.49,0,0,1-1.21-2.7,3.6,3.6,0,0,1,1.5-3.11,7.34,7.34,0,0,1,4.31-1.08h1.75v-.84a2.24,2.24,0,0,0-.55-1.57,2.18,2.18,0,0,0-1.68-.59,2.51,2.51,0,0,0-1.59.48A1.5,1.5,0,0,0,25.1,220H22.25a3.14,3.14,0,0,1,.69-1.95,4.64,4.64,0,0,1,1.88-1.43,6.66,6.66,0,0,1,2.65-.51A5.28,5.28,0,0,1,31,217.2a3.94,3.94,0,0,1,1.36,3.14v5.72a6.49,6.49,0,0,0,.48,2.73v.2Zm-3.13-2.05a3.19,3.19,0,0,0,1.59-.41,2.76,2.76,0,0,0,1.12-1.1V223H28a4.19,4.19,0,0,0-2.38.55,1.79,1.79,0,0,0-.79,1.56,1.68,1.68,0,0,0,.54,1.31A2.12,2.12,0,0,0,26.83,226.94Z"/><path class="cls-3" d="M42.69,227.75a4.41,4.41,0,0,1-3.56,1.48A4,4,0,0,1,36,228a5.16,5.16,0,0,1-1.06-3.49v-8.22h2.85v8.18c0,1.61.67,2.42,2,2.42a2.81,2.81,0,0,0,2.8-1.49v-9.11h2.85V229H42.76Z"/><path class="cls-3" d="M51.55,213.23v3.08h2.24v2.11H51.55v7.08a1.57,1.57,0,0,0,.29,1.05,1.34,1.34,0,0,0,1,.32,4.34,4.34,0,0,0,1-.12V229a7,7,0,0,1-1.88.27c-2.18,0-3.28-1.21-3.28-3.62v-7.19H46.62v-2.11H48.7v-3.08Z"/><path class="cls-3" d="M58.41,217.7a4.46,4.46,0,0,1,3.53-1.62q4.05,0,4.11,4.63V229H63.2v-8.18a2.48,2.48,0,0,0-.57-1.85,2.27,2.27,0,0,0-1.67-.55,2.74,2.74,0,0,0-2.55,1.52V229H55.56V211h2.85Z"/><path class="cls-3" d="M74.15,229.23a5.89,5.89,0,0,1-4.39-1.71A6.18,6.18,0,0,1,68.08,223v-.35a7.54,7.54,0,0,1,.73-3.39,5.63,5.63,0,0,1,2.06-2.33,5.47,5.47,0,0,1,2.95-.83,5,5,0,0,1,4,1.65,6.94,6.94,0,0,1,1.42,4.68v1.15H71A3.85,3.85,0,0,0,72,226a3.14,3.14,0,0,0,2.31.91,3.84,3.84,0,0,0,3.19-1.58L79,226.84a5.21,5.21,0,0,1-2,1.76A6.29,6.29,0,0,1,74.15,229.23Zm-.34-10.87a2.42,2.42,0,0,0-1.89.82,4.25,4.25,0,0,0-.92,2.29h5.42v-.21a3.4,3.4,0,0,0-.76-2.16A2.37,2.37,0,0,0,73.81,218.36Z"/><path class="cls-3" d="M83.73,216.31l.08,1.47a4.57,4.57,0,0,1,3.69-1.7c2.64,0,4,1.51,4,4.53V229H88.69v-8.21a2.6,2.6,0,0,0-.53-1.79,2.16,2.16,0,0,0-1.7-.58A2.75,2.75,0,0,0,83.89,220v9H81.05V216.31Z"/><path class="cls-3" d="M97.64,213.23v3.08h2.24v2.11H97.64v7.08a1.57,1.57,0,0,0,.29,1.05,1.34,1.34,0,0,0,1,.32,4.34,4.34,0,0,0,1-.12V229a7,7,0,0,1-1.87.27q-3.28,0-3.29-3.62v-7.19H92.71v-2.11h2.08v-3.08Z"/><path class="cls-3" d="M101.7,213a1.5,1.5,0,0,1,.42-1.09,1.55,1.55,0,0,1,1.19-.43,1.58,1.58,0,0,1,1.19.43,1.5,1.5,0,0,1,.42,1.09,1.45,1.45,0,0,1-.42,1.07,1.58,1.58,0,0,1-1.19.43,1.55,1.55,0,0,1-1.19-.43A1.45,1.45,0,0,1,101.7,213Zm3,16h-2.84V216.31h2.84Z"/><path class="cls-3" d="M112.67,227a2.55,2.55,0,0,0,1.77-.62,2.09,2.09,0,0,0,.75-1.53h2.69a4.29,4.29,0,0,1-.74,2.21,4.88,4.88,0,0,1-1.88,1.62,5.57,5.57,0,0,1-2.55.6,5.4,5.4,0,0,1-4.22-1.73,6.8,6.8,0,0,1-1.56-4.75v-.3a6.71,6.71,0,0,1,1.55-4.63,5.35,5.35,0,0,1,4.22-1.74,5.21,5.21,0,0,1,3.68,1.32,4.73,4.73,0,0,1,1.5,3.46h-2.69a2.61,2.61,0,0,0-.74-1.79,2.41,2.41,0,0,0-1.78-.71,2.5,2.5,0,0,0-2.13,1,5.11,5.11,0,0,0-.76,3v.45a5.26,5.26,0,0,0,.74,3.08A2.49,2.49,0,0,0,112.67,227Z"/><path class="cls-3" d="M127.24,229a4.73,4.73,0,0,1-.33-1.18,4.43,4.43,0,0,1-3.32,1.42,4.49,4.49,0,0,1-3.12-1.09,3.49,3.49,0,0,1-1.21-2.7,3.59,3.59,0,0,1,1.51-3.11,7.3,7.3,0,0,1,4.3-1.08h1.75v-.84a2,2,0,0,0-2.23-2.16,2.51,2.51,0,0,0-1.59.48,1.53,1.53,0,0,0-.62,1.24h-2.85a3.14,3.14,0,0,1,.69-1.95,4.64,4.64,0,0,1,1.88-1.43,6.71,6.71,0,0,1,2.66-.51,5.3,5.3,0,0,1,3.55,1.12,4,4,0,0,1,1.36,3.14v5.72a6.49,6.49,0,0,0,.48,2.73v.2Zm-3.13-2.05a3.17,3.17,0,0,0,1.59-.41,2.7,2.7,0,0,0,1.12-1.1V223h-1.54a4.15,4.15,0,0,0-2.37.55,1.78,1.78,0,0,0-.8,1.56,1.68,1.68,0,0,0,.54,1.31A2.14,2.14,0,0,0,124.11,226.94Z"/><path class="cls-3" d="M135.86,213.23v3.08h2.24v2.11h-2.24v7.08a1.52,1.52,0,0,0,.29,1.05,1.34,1.34,0,0,0,1,.32,4.34,4.34,0,0,0,1-.12V229a7.06,7.06,0,0,1-1.88.27q-3.28,0-3.28-3.62v-7.19h-2.08v-2.11H133v-3.08Z"/><path class="cls-3" d="M145.49,229.23a5.87,5.87,0,0,1-4.38-1.71,6.14,6.14,0,0,1-1.69-4.54v-.35a7.54,7.54,0,0,1,.74-3.39,5.61,5.61,0,0,1,2.05-2.33,5.51,5.51,0,0,1,3-.83,5,5,0,0,1,4,1.65,7,7,0,0,1,1.41,4.68v1.15H142.3a3.79,3.79,0,0,0,1,2.48,3.17,3.17,0,0,0,2.32.91,3.85,3.85,0,0,0,3.19-1.58l1.53,1.47a5.19,5.19,0,0,1-2,1.76A6.36,6.36,0,0,1,145.49,229.23Zm-.34-10.87a2.42,2.42,0,0,0-1.89.82,4.33,4.33,0,0,0-.92,2.29h5.43v-.21a3.46,3.46,0,0,0-.76-2.16A2.4,2.4,0,0,0,145.15,218.36Z"/><path class="cls-3" d="M159.54,225.55a1.28,1.28,0,0,0-.63-1.16,6.71,6.71,0,0,0-2.08-.71,10.72,10.72,0,0,1-2.43-.77,3.24,3.24,0,0,1-2.13-3,3.37,3.37,0,0,1,1.38-2.74,5.52,5.52,0,0,1,3.52-1.1,5.66,5.66,0,0,1,3.67,1.12,3.56,3.56,0,0,1,1.4,2.92H159.4a1.76,1.76,0,0,0-.61-1.36,2.32,2.32,0,0,0-1.62-.55,2.5,2.5,0,0,0-1.53.44,1.36,1.36,0,0,0-.59,1.16,1.14,1.14,0,0,0,.55,1,7.44,7.44,0,0,0,2.23.74,10.42,10.42,0,0,1,2.63.88,3.65,3.65,0,0,1,1.41,1.22,3.14,3.14,0,0,1,.47,1.74,3.32,3.32,0,0,1-1.42,2.77,6.1,6.1,0,0,1-3.72,1.06,6.47,6.47,0,0,1-2.77-.57,4.51,4.51,0,0,1-1.9-1.54,3.71,3.71,0,0,1-.68-2.12h2.76a2,2,0,0,0,.77,1.55,3,3,0,0,0,1.86.54,2.92,2.92,0,0,0,1.71-.42A1.34,1.34,0,0,0,159.54,225.55Z"/><path class="cls-3" d="M9.94,246.69A7.61,7.61,0,0,1,11.3,242,4.37,4.37,0,0,1,15,240.21a4.14,4.14,0,0,1,3.25,1.4v-6.49h2.85v18H18.47l-.14-1.31a4.19,4.19,0,0,1-3.41,1.55,4.33,4.33,0,0,1-3.6-1.8A7.79,7.79,0,0,1,9.94,246.69Zm2.85.25a5.31,5.31,0,0,0,.74,3A2.42,2.42,0,0,0,15.65,251a2.68,2.68,0,0,0,2.55-1.56v-5.42a2.64,2.64,0,0,0-2.53-1.52,2.43,2.43,0,0,0-2.13,1.1A5.88,5.88,0,0,0,12.79,246.94Z"/><path class="cls-3" d="M23.67,237.15a1.54,1.54,0,0,1,.41-1.09,1.88,1.88,0,0,1,2.39,0,1.5,1.5,0,0,1,.42,1.09,1.45,1.45,0,0,1-.42,1.07,1.88,1.88,0,0,1-2.39,0A1.49,1.49,0,0,1,23.67,237.15Zm3,16H23.84V240.44h2.85Z"/><path class="cls-3" d="M36.07,243a7.27,7.27,0,0,0-1.16-.09,2.63,2.63,0,0,0-2.64,1.5v8.67H29.43V240.44h2.72l.07,1.42a3.2,3.2,0,0,1,2.85-1.65,2.64,2.64,0,0,1,1,.16Z"/><path class="cls-3" d="M42.87,253.36a5.89,5.89,0,0,1-4.39-1.71,6.18,6.18,0,0,1-1.68-4.54v-.35a7.54,7.54,0,0,1,.73-3.39A5.63,5.63,0,0,1,39.59,241a5.47,5.47,0,0,1,2.95-.83,5,5,0,0,1,4,1.65A6.94,6.94,0,0,1,48,246.54v1.15H39.67a3.85,3.85,0,0,0,1,2.48,3.13,3.13,0,0,0,2.31.91,3.84,3.84,0,0,0,3.19-1.58L47.76,251a5.21,5.21,0,0,1-2,1.76A6.29,6.29,0,0,1,42.87,253.36Zm-.34-10.87a2.42,2.42,0,0,0-1.89.82,4.25,4.25,0,0,0-.92,2.29h5.42v-.21a3.4,3.4,0,0,0-.76-2.16A2.37,2.37,0,0,0,42.53,242.49Z"/><path class="cls-3" d="M55,251.08a2.53,2.53,0,0,0,1.77-.62,2.09,2.09,0,0,0,.75-1.53h2.69a4.2,4.2,0,0,1-.74,2.21,4.88,4.88,0,0,1-1.88,1.62,5.57,5.57,0,0,1-2.55.6,5.41,5.41,0,0,1-4.22-1.73,6.8,6.8,0,0,1-1.56-4.75v-.3A6.71,6.71,0,0,1,50.82,242,5.36,5.36,0,0,1,55,240.21a5.19,5.19,0,0,1,3.68,1.32,4.73,4.73,0,0,1,1.5,3.46H57.53a2.61,2.61,0,0,0-.74-1.79,2.41,2.41,0,0,0-1.78-.71,2.5,2.5,0,0,0-2.13,1,5.11,5.11,0,0,0-.76,3V247a5.26,5.26,0,0,0,.74,3.08A2.5,2.5,0,0,0,55,251.08Z"/><path class="cls-3" d="M65.58,237.36v3.08h2.23v2.11H65.58v7.08a1.59,1.59,0,0,0,.28,1.05,1.38,1.38,0,0,0,1,.32,4.34,4.34,0,0,0,1-.12v2.21a7.06,7.06,0,0,1-1.88.27q-3.29,0-3.28-3.62v-7.19H60.64v-2.11h2.09v-3.08Z"/><path class="cls-3" d="M72.66,253.12H69.81v-18h2.85Z"/><path class="cls-3" d="M79.83,249l2.58-8.6h3l-5,14.6c-.78,2.14-2.09,3.2-3.94,3.2A5.14,5.14,0,0,1,75.1,258v-2.21l.54,0a2.76,2.76,0,0,0,1.62-.39,2.6,2.6,0,0,0,.86-1.32l.41-1.09-4.45-12.61h3.07Z"/><path class="cls-3" d="M103.48,249.2l2-8.76h2.78l-3.46,12.68h-2.34l-2.72-8.7-2.67,8.7H94.73l-3.46-12.68H94l2,8.66,2.6-8.66h2.15Z"/><path class="cls-3" d="M109.82,237.15a1.5,1.5,0,0,1,.42-1.09,1.55,1.55,0,0,1,1.19-.43,1.58,1.58,0,0,1,1.19.43,1.5,1.5,0,0,1,.42,1.09,1.45,1.45,0,0,1-.42,1.07,1.58,1.58,0,0,1-1.19.43,1.55,1.55,0,0,1-1.19-.43A1.45,1.45,0,0,1,109.82,237.15Zm3,16H110V240.44h2.84Z"/><path class="cls-3" d="M119.15,237.36v3.08h2.24v2.11h-2.24v7.08a1.59,1.59,0,0,0,.29,1.05,1.34,1.34,0,0,0,1,.32,4.34,4.34,0,0,0,1-.12v2.21a7,7,0,0,1-1.88.27c-2.18,0-3.28-1.21-3.28-3.62v-7.19h-2.08v-2.11h2.08v-3.08Z"/><path class="cls-3" d="M126,241.83a4.45,4.45,0,0,1,3.53-1.62q4.05,0,4.11,4.63v8.28H130.8v-8.18a2.48,2.48,0,0,0-.57-1.85,2.29,2.29,0,0,0-1.67-.55,2.74,2.74,0,0,0-2.55,1.52v9.06h-2.85v-18H126Z"/><path class="cls-3" d="M145.19,253.12h-3V236.06h3Z"/><path class="cls-3" d="M147.66,246.69A7.61,7.61,0,0,1,149,242a4.37,4.37,0,0,1,3.65-1.77,4.17,4.17,0,0,1,3.26,1.4v-6.49h2.84v18h-2.58l-.14-1.31a4.19,4.19,0,0,1-3.41,1.55,4.33,4.33,0,0,1-3.6-1.8A7.79,7.79,0,0,1,147.66,246.69Zm2.85.25a5.23,5.23,0,0,0,.75,3,2.39,2.39,0,0,0,2.11,1.09,2.7,2.7,0,0,0,2.56-1.56v-5.42a2.67,2.67,0,0,0-2.54-1.52,2.43,2.43,0,0,0-2.13,1.1A5.88,5.88,0,0,0,150.51,246.94Z"/><path class="cls-3" d="M164.62,246.79v6.33h-3V236.06h6.53a6.62,6.62,0,0,1,4.54,1.49,5,5,0,0,1,1.68,3.94,4.84,4.84,0,0,1-1.65,3.91,6.9,6.9,0,0,1-4.61,1.39Zm0-2.39h3.57a3.48,3.48,0,0,0,2.41-.74,2.72,2.72,0,0,0,.83-2.15,3,3,0,0,0-.84-2.21,3.28,3.28,0,0,0-2.32-.85h-3.65Z"/></g><g id="art"><path class="cls-12" d="M84.59,89.72c-6-3.65-10.1-11.47-10.1-20.53V57.07c0-13.13,9.31-18.17,17.67-18.17h0c8.36,0,17.67,5,17.67,18.17V69.19"/><path class="cls-9" d="M82.06,87.83V91.9c0,2.53,1.27,6.32-12.62,8.84C57,103,54.79,114.62,54.79,114.62h74.7a18.44,18.44,0,0,0-14.65-13.88c-13.53-2.52-12.62-6.31-12.62-8.84l0-4"/><polyline class="cls-13" points="79.54 97.5 92.16 114.62 104.78 97.42"/><path class="cls-13" d="M74.49,59.09C89.64,59.09,89.64,49,99.73,49c9.42,0,10.1,8.88,10.1,8.88"/><path class="cls-12" d="M99.73,89.72c6-3.65,10.1-11.47,10.1-20.53"/><circle class="cls-8" cx="92.14" cy="82.86" r="62.5"/></g></svg>